PathFileType	3	(X/Y/Z)	D:\Jess\PFP\Labelled\PA11\20250805\SRRun01.trc
DataRate	CameraRate	NumFrames	NumMarkers	Units	OrigDataRate	OrigDataStartFrame	OrigNumFrames
250.0	250.0	4	33	mm	250.0	37188	2501
Frame#	Time	C7			T10			CLAV			LSHO			RSHO			LASIS			RASIS			LPSIS			RPSIS			LILCR			RILCR			LGTR			LTHI			LLTHI			LLEP			LPSH			LLSH			LDSH			LLMAL			LTOE			L5TH			LHEE			RGTR			RTHI			RLTHI			RLEP			RPSH			RLSH			RDSH			RLMAL			RTOE			R5TH			RHEE			
		X1	Y1	Z1	X2	Y2	Z2	X3	Y3	Z3	X4	Y4	Z4	X5	Y5	Z5	X6	Y6	Z6	X7	Y7	Z7	X8	Y8	Z8	X9	Y9	Z9	X10	Y10	Z10	X11	Y11	Z11	X12	Y12	Z12	X13	Y13	Z13	X14	Y14	Z14	X15	Y15	Z15	X16	Y16	Z16	X17	Y17	Z17	X18	Y18	Z18	X19	Y19	Z19	X20	Y20	Z20	X21	Y21	Z21	X22	Y22	Z22	X23	Y23	Z23	X24	Y24	Z24	X25	Y25	Z25	X26	Y26	Z26	X27	Y27	Z27	X28	Y28	Z28	X29	Y29	Z29	X30	Y30	Z30	X31	Y31	Z31	X32	Y32	Z32	X33	Y33	Z33	

2189	148.748	989.6276349440677	1527.04336364995	-308.84441563207	908.3611344108006	1305.223019113852	-285.462137202694	1108.017024834972	1415.545374601689	-329.2828388822211	1040.406156290231	1504.245992204064	-463.9069546660189	1079.449327253711	1502.849615879686	-170.0596082461931	1081.225158949892	1055.331956716981	-453.9239886786607	1091.439121388371	1028.133780202328	-200.7350331329858	882.4743073858571	1086.38025909569	-335.3452367562318	885.1682431361837	1086.666941235595	-301.7771830369013	1003.988036997595	1129.677062719252	-487.9010252624585	1034.757727074496	1110.545568816493	-153.6324258338223	1008.144617992652	957.929151916991	-543.4090372405237	1173.927404126525	814.034019220474	-441.8423945865343	1130.134295109307	678.0474365769095	-504.7036727402731	1158.434773082508	566.2365896369201	-494.3116055410776	1211.747828854783	485.4165403726455	-445.621680067902	1067.609269530651	374.3670867450231	-495.3713347505927	1089.817554959734	239.2592355487069	-437.848980520451	990.0171240320275	166.6671310617592	-458.8646587859912	1132.961137381814	91.17950579255907	-477.5094900417168	1087.575908924585	68.73456818963635	-513.9680478508495	928.8951732288721	148.7737809803751	-395.685753910015	985.4832331610073	947.9863760314364	-116.3310459270164	1069.599484601015	731.3692212213808	-250.447370782385	946.9118108286606	640.7988553494818	-180.9227961505734	921.5643661358197	496.7106876799792	-211.3311365823033	926.4872794199662	419.0707975201781	-284.1559496863837	800.9728899399475	318.814423947267	-216.824573338986	801.3027406712667	205.7643983531801	-284.7788271650345	697.4175013999998	140.1468329028748	-250.1376987634418	826.0667887039506	60.53597936697505	-259.1596315129653	782.7187659198599	48.02391150461263	-216.2987736100913	616.1179553652228	124.9389856892879	-302.2366756522713	
2190	148.752	989.6162189292011	1528.886994743602	-308.5351219568818	909.0875124833137	1307.218804523595	-284.1136844433105	1108.129001961098	1418.591918700854	-330.0610659279078	1038.761218089365	1506.53420535592	-463.8504233947529	1080.372112949957	1505.398670548058	-170.9137854834008	1081.642081618444	1058.750126429147	-454.5369336921245	1092.764019402879	1030.014423757903	-201.8663735610834	883.6496835361153	1089.330294026815	-334.9111569515935	886.5049170583816	1089.484176604172	-301.3700498546249	1003.554556684549	1133.354208938004	-487.9481640725451	1037.692139493154	1112.635099030361	-154.3981281718488	1008.628515419874	961.8795315104212	-544.0977900754662	1173.594113089487	817.3322244596907	-442.5534273752116	1129.199355890304	680.390571017169	-504.0735484442704	1157.899796233423	568.0777945250769	-493.7948579052605	1213.326575394243	488.408128740986	-445.291216561687	1073.074566733793	372.5486331955397	-495.2255474295623	1099.94450050666	238.3454065983295	-437.5138394617247	1002.886148381284	162.1166273158554	-458.5278363398232	1148.605037292059	92.21326192002752	-476.5884934292295	1104.254109658848	67.78197299115972	-513.1079462007955	942.3540833572387	141.9102460510019	-395.4154549524504	986.1037900460502	950.0388195196847	-117.08524424976	1066.673526537003	732.7321686256844	-252.0415274004955	942.8112179359399	643.8653994449204	-180.9977857970577	914.2461038278244	500.5595191905125	-210.6141342223682	918.9495584032343	422.4428362886939	-283.4244410882001	792.8714120512561	322.846339212674	-216.0520932986595	793.9146665092098	209.1749723169578	-283.8927251785932	690.0017695327988	143.3934116232242	-249.4736980725027	816.8900850707927	60.44124665003289	-259.069785990443	773.2983090277896	48.60554965815187	-216.2933285157701	608.802504349908	130.028739830124	-301.7744454132489	
2191	148.756	989.6469920933514	1530.66142911982	-308.2444895828205	909.7957741363532	1309.192334573024	-282.8164175630296	1108.237750010049	1421.499489025202	-330.8421794547606	1037.203118074904	1508.730090527512	-463.7696534779267	1081.296428645444	1507.8178470892	-171.7961738383628	1082.063843463723	1062.212018175946	-455.1336209391582	1094.054487922136	1031.996366427217	-202.9562139390276	884.8551535325963	1092.205061037115	-334.5441686442982	887.8260728510296	1092.227592948061	-301.025261783028	1003.138515849171	1136.979045767732	-488.0120638207164	1040.513340898329	1114.739193707498	-155.2051456790061	1009.179773397454	965.7766945603327	-544.7585451323167	1173.288799511292	820.4947090226494	-443.2211074170281	1128.093185941564	682.5636870475591	-503.4654048625574	1157.102480937199	569.6401672847003	-493.3039562681651	1214.632848832841	491.1424230784466	-445.0178765475642	1078.447547447777	370.6753742570364	-495.1279742534756	1109.907622685391	237.5451540786108	-437.2201007022282	1015.723349268278	157.821164378972	-458.2443136260788	1163.983722912702	93.54278818084154	-475.6225071310046	1120.744461658802	67.17088199504015	-512.2158613381373	955.8376183767679	135.369175454949	-395.2270257665648	986.6782974491948	952.159309967357	-117.8248415094135	1063.913472649644	734.1676480052838	-253.5255310055043	938.885674965537	647.0435881950012	-180.9572718125253	907.2067084421348	504.5317339914934	-209.7472037655532	911.7462560063547	425.9455673037062	-282.5793518088206	785.0722434426748	327.0096375642178	-215.2096214042242	786.8163223491067	212.7339944243778	-282.8879125059495	682.8418034327472	146.7897853115122	-248.7830968022797	807.8053972893384	60.39174860868129	-258.9289426577596	763.9546586261531	49.26319063493357	-216.2574862342464	601.7824077745868	135.358336348815	-301.3200262596019	
2192	148.76	989.711712446969	1532.360324751868	-307.9743308389315	910.4828679300061	1311.133479723826	-281.5788972837607	1108.342107947109	1424.264854007846	-331.6285709764821	1035.730838912059	1510.830237974555	-463.6707972097433	1082.220060882298	1510.100662614695	-172.7076256928527	1082.483920079255	1065.697109019408	-455.7068778790808	1095.309315284224	1034.063277189586	-204.0023308636733	886.0862433804375	1094.993851282288	-334.2528266056969	889.1280502615948	1094.893223930166	-300.7489118100646	1002.747472285069	1140.523388308582	-488.1013008180403	1043.203501926893	1116.843380297085	-156.0452108377437	1009.792544398785	969.5996695670589	-545.3884884994336	1173.019350678002	823.5123261250952	-443.8461840718323	1126.835741794086	684.5738999338172	-502.8950603623864	1156.064349393007	570.9287877888499	-492.8461806415224	1215.6837900123	493.6141830040293	-444.7994579219588	1083.722633374611	368.7656953427888	-495.0744748617201	1119.680732666823	236.8658173650943	-436.9614558754358	1028.48522045572	153.8003156808458	-458.009125053948	1179.052842176767	95.16262206013289	-474.6077580359211	1136.996853788251	66.90476201305367	-511.2890040127579	969.2936693390026	129.1751398241602	-395.1184388843482	987.2106792404179	954.3451604951283	-118.5413847135383	1061.329431316082	735.6668292223809	-254.88199622985	935.1322976924688	650.3230770887967	-180.7981929336969	900.4808578305493	508.6001453245896	-208.746338284654	904.9055290902528	429.5549930129401	-281.6355698792145	777.6056477597233	331.2769038680669	-214.3070824359114	780.0174861182508	216.4171465160457	-281.7734935170081	675.9427333280091	150.3213067384713	-248.0705149228182	798.8177497724492	60.39548872119078	-258.7371021569258	754.6928257237802	50.00403091719872	-216.1943401693365	595.066800313588	140.9050008622032	-300.8768774788876	
